<svg xmlns="http://www.w3.org/2000/svg" xmlns:xlink="http://www.w3.org/1999/xlink" id="exportSvg" width="600" height="439"><defs/><rect width="600" height="439" transform="translate(0, 0)" fill="#fff" style="fill: rgb(255, 255, 255);"/><g><g id="__svelte-dw-svg" clip-path="url(#rect-mask-__svelte-dw-XInWAWKOh6tcaSzOYf6Yj)"><clipPath id="rect-mask-__svelte-dw-XInWAWKOh6tcaSzOYf6Yj"><rect x="0" y="0" width="600" height="440.890625"/></clipPath><g id="header-svg"><text transform="translate(5, 5)"><tspan fill="rgb(22,40,74)" x="0" y="24" style="font-family: &quot;Forma DJR UI Text&quot;; font-weight: 700; font-size: 23px;">Achteruitgang van de Vlaams christendemocraten</tspan></text></g><g id="chart-svg"><text transform="translate(5, 44)" id="Vlaamse verkiezingen"><tspan fill="rgb(22,40,74)" x="17" y="14.890625" style="font-family: &quot;Forma DJR UI Micro&quot;; font-weight: 400; font-size: 14px;">Vlaamse</tspan><tspan fill="rgb(22,40,74)" style="font-family: &quot;Forma DJR UI Micro&quot;; font-weight: 400; font-size: 14px;">​ verkiezingen</tspan></text><rect width="14" height="14" transform="translate(5, 46.390625)" fill="rgb(255,128,0)" style="fill: rgb(255, 128, 0);"/><text transform="translate(165.046875, 44)" id="De Stemming"><tspan fill="rgb(22,40,74)" x="17" y="14.890625" style="font-family: &quot;Forma DJR UI Micro&quot;; font-weight: 400; font-size: 14px;">De</tspan><tspan fill="rgb(22,40,74)" style="font-family: &quot;Forma DJR UI Micro&quot;; font-weight: 400; font-size: 14px;">​ Stemming</tspan></text><rect width="14" height="14" transform="translate(165.046875, 46.390625)" fill="rgb(255,182,108)" style="fill: rgb(255, 182, 108);"/><text transform="translate(47.5625, 74.890625)" id="CVP"><tspan fill="rgb(22,40,74)" x="0" y="14" style="font-family: &quot;Forma DJR UI Micro&quot;; font-weight: 700; font-size: 14px;">CVP</tspan></text><text transform="translate(42.5625, 97.890625)" style="text-anchor: end;"><tspan fill="rgb(22,40,74)" x="0" y="14" style="font-family: &quot;Forma DJR UI Micro&quot;; font-weight: 400; font-size: 14px;">1995</tspan></text><rect width="546.421875" height="20" transform="translate(47.5625, 95.890625)" fill="rgb(255,128,0)" style="fill: rgb(255, 128, 0);"/><text transform="translate(42.5625, 121.890625)" style="text-anchor: end;"><tspan fill="rgb(22,40,74)" x="0" y="14" style="font-family: &quot;Forma DJR UI Micro&quot;; font-weight: 400; font-size: 14px;">1999</tspan></text><rect width="450.609375" height="20" transform="translate(47.5625, 119.890625)" fill="rgb(255,128,0)" style="fill: rgb(255, 128, 0);"/><text transform="translate(47.5625, 164.890625)" id="CD&amp;V/N-VA"><tspan fill="rgb(22,40,74)" x="0" y="14" style="font-family: &quot;Forma DJR UI Micro&quot;; font-weight: 700; font-size: 14px;">CD&amp;V/N-VA</tspan></text><text transform="translate(42.5625, 187.890625)" style="text-anchor: end;"><tspan fill="rgb(22,40,74)" x="0" y="14" style="font-family: &quot;Forma DJR UI Micro&quot;; font-weight: 400; font-size: 14px;">2004</tspan></text><rect width="532.15625" height="20" transform="translate(47.5625, 185.890625)" fill="rgb(255,128,0)" style="fill: rgb(255, 128, 0);"/><text transform="translate(47.5625, 230.890625)" id="CD&amp;V"><tspan fill="rgb(22,40,74)" x="0" y="14" style="font-family: &quot;Forma DJR UI Micro&quot;; font-weight: 700; font-size: 14px;">CD&amp;V</tspan></text><text transform="translate(42.5625, 253.890625)" style="text-anchor: end;"><tspan fill="rgb(22,40,74)" x="0" y="14" style="font-family: &quot;Forma DJR UI Micro&quot;; font-weight: 400; font-size: 14px;">2009</tspan></text><rect width="466.90625" height="20" transform="translate(47.5625, 251.890625)" fill="rgb(255,128,0)" style="fill: rgb(255, 128, 0);"/><text transform="translate(42.5625, 277.890625)" style="text-anchor: end;"><tspan fill="rgb(22,40,74)" x="0" y="14" style="font-family: &quot;Forma DJR UI Micro&quot;; font-weight: 400; font-size: 14px;">2014</tspan></text><rect width="417.984375" height="20" transform="translate(47.5625, 275.890625)" fill="rgb(255,128,0)" style="fill: rgb(255, 128, 0);"/><text transform="translate(42.5625, 301.890625)" style="text-anchor: end;"><tspan fill="rgb(22,40,74)" x="0" y="14" style="font-family: &quot;Forma DJR UI Micro&quot;; font-weight: 400; font-size: 14px;">2019</tspan></text><rect width="314" height="20" transform="translate(47.5625, 299.890625)" fill="rgb(255,128,0)" style="fill: rgb(255, 128, 0);"/><text transform="translate(42.5625, 325.890625)" style="text-anchor: end;"><tspan fill="rgb(22,40,74)" x="0" y="14" style="font-family: &quot;Forma DJR UI Micro&quot;; font-weight: 400; font-size: 14px;">2020</tspan></text><rect width="242.640625" height="20" transform="translate(47.5625, 323.890625)" fill="rgb(255,182,108)" style="fill: rgb(255, 182, 108);"/><text transform="translate(42.5625, 349.890625)" style="text-anchor: end;"><tspan fill="rgb(22,40,74)" x="0" y="14" style="font-family: &quot;Forma DJR UI Micro&quot;; font-weight: 400; font-size: 14px;">2021</tspan></text><rect width="203.890625" height="20" transform="translate(47.5625, 347.890625)" fill="rgb(255,182,108)" style="fill: rgb(255, 182, 108);"/><text transform="translate(42.5625, 373.890625)" style="text-anchor: end;"><tspan fill="rgb(22,40,74)" x="0" y="14" style="font-family: &quot;Forma DJR UI Micro&quot;; font-weight: 400; font-size: 14px;">2022</tspan></text><rect width="177.390625" height="20" transform="translate(47.5625, 371.890625)" fill="rgb(255,182,108)" style="fill: rgb(255, 182, 108);"/><text transform="translate(588.984375, 97.890625)" style="text-anchor: end;"><tspan fill="rgb(255,255,255)" x="0" y="14" style="font-family: &quot;Forma DJR UI Micro&quot;; font-weight: 400; font-size: 14px;">26,8%</tspan></text><text transform="translate(493.171875, 121.890625)" style="text-anchor: end;"><tspan fill="rgb(255,255,255)" x="0" y="14" style="font-family: &quot;Forma DJR UI Micro&quot;; font-weight: 400; font-size: 14px;">22,1%</tspan></text><text transform="translate(574.71875, 187.890625)" style="text-anchor: end;"><tspan fill="rgb(255,255,255)" x="0" y="14" style="font-family: &quot;Forma DJR UI Micro&quot;; font-weight: 400; font-size: 14px;">26,1%</tspan></text><text transform="translate(509.46875, 253.890625)" style="text-anchor: end;"><tspan fill="rgb(255,255,255)" x="0" y="14" style="font-family: &quot;Forma DJR UI Micro&quot;; font-weight: 400; font-size: 14px;">22,9%</tspan></text><text transform="translate(460.546875, 277.890625)" style="text-anchor: end;"><tspan fill="rgb(255,255,255)" x="0" y="14" style="font-family: &quot;Forma DJR UI Micro&quot;; font-weight: 400; font-size: 14px;">20,5%</tspan></text><text transform="translate(356.5625, 301.890625)" style="text-anchor: end;"><tspan fill="rgb(255,255,255)" x="0" y="14" style="font-family: &quot;Forma DJR UI Micro&quot;; font-weight: 400; font-size: 14px;">15,4%</tspan></text><text transform="translate(285.203125, 325.890625)" style="text-anchor: end;"><tspan fill="rgb(51,51,51)" x="0" y="14" style="font-family: &quot;Forma DJR UI Micro&quot;; font-weight: 400; font-size: 14px;">11,9%</tspan></text><text transform="translate(246.453125, 349.890625)" style="text-anchor: end;"><tspan fill="rgb(51,51,51)" x="0" y="14" style="font-family: &quot;Forma DJR UI Micro&quot;; font-weight: 400; font-size: 14px;">10,0%</tspan></text><text transform="translate(219.953125, 373.890625)" style="text-anchor: end;"><tspan fill="rgb(51,51,51)" x="0" y="14" style="font-family: &quot;Forma DJR UI Micro&quot;; font-weight: 400; font-size: 14px;">8,7%</tspan></text></g><g id="footer-svg"><text transform="translate(594.984375, 411.890625)" style="text-anchor: end;"/><g id="image"><svg xmlns="http://www.w3.org/2000/svg" viewBox="0 0 300.43 76.04" width="79" height="20" x="515" y="411"><defs><style>.cls-1{fill:#f1f2f4;}</style></defs><g id="Layer_17" data-name="Layer 17"><g id="Logo_NWS" data-name="Logo NWS"><path class="cls-1" d="M97.92,23.43h-.21V73a1,1,0,0,1-1,1H84.84a1,1,0,0,1-1-1V3.06a1,1,0,0,1,1-1h15.78a1,1,0,0,1,.88.51l28.18,49.35h.21V3.06a1,1,0,0,1,1-1h11.86a1,1,0,0,1,1,1V73a1,1,0,0,1-1,1H127.24a1,1,0,0,1-.88-.51Z"/><path class="cls-1" d="M284.7,22.3a1,1,0,0,1-1-.92c-.72-6.2-6.73-9.56-15.46-9.56-7.09,0-13.88,2.67-13.88,8.74,0,18.6,46.06-2.16,46.06,32.89,0,0,0,22.62-31.46,22.62-28.14,0-30.35-18.44-30.6-24.47a1,1,0,0,1,1-1H252.3a1,1,0,0,1,1,1c.76,10,8.73,12.72,16.61,12.72s15.62-3,15.62-10.49c0-19-46,.93-46-32.79,0-10.28,9.66-21,29.81-21,19.36,0,28.64,9.68,29.26,21.25a1,1,0,0,1-1,1.05Z"/><path class="cls-1" d="M37,2.06a37,37,0,1,0,37,37v-37ZM30.67,30,24.32,48.43a.5.5,0,0,1-.48.35H19a.5.5,0,0,1-.48-.35L12.12,30a.51.51,0,0,1,.48-.66h4.25a.51.51,0,0,1,.48.36L21.39,42.4h.08l4-12.72a.51.51,0,0,1,.49-.37h4.24A.51.51,0,0,1,30.67,30Zm15.2,3.16a.5.5,0,0,1-.52.5h-.2c-4-.17-6.72,3-6.86,7V47h0v1.3a.51.51,0,0,1-.51.5H33.73a.5.5,0,0,1-.5-.5V29.82a.5.5,0,0,1,.5-.51H37.6a.5.5,0,0,1,.5.51V32c2.14-2.63,4.83-3,7.3-2.82a.5.5,0,0,1,.47.5Zm9.84,15.94c-4.3,0-7.31-3.15-7.31-7.84V24.46a.45.45,0,0,1,.45-.46H53a.45.45,0,0,1,.45.45v4.86h6.4a.47.47,0,0,1,.46.46v3.4a.47.47,0,0,1-.46.46h-6.4s0,7.49,0,7.74v.2c0,1.67,1,2.72,2.32,2.72a2.32,2.32,0,0,0,2.31-2.42v0a.65.65,0,0,1,.67-.64h3.59a.45.45,0,0,1,.45.45v.1A7.13,7.13,0,0,1,55.71,49.07Z"/><path class="cls-1" d="M239.74,2.05h-12.1a1,1,0,0,0-1,.79L214.6,57.46l-11-54.6a1,1,0,0,0-1-.81H184.89a1,1,0,0,0-1,.81l-11,54.6L160.81,2.84a1,1,0,0,0-1-.79h-12.1a1,1,0,0,0-1,1.24l16.59,69.95a1,1,0,0,0,1,.77h17.3a1,1,0,0,0,1-.8l11.14-54.4,11.14,54.4a1,1,0,0,0,1,.8h17.3a1,1,0,0,0,1-.77L240.72,3.29A1,1,0,0,0,239.74,2.05Z"/></g></g></svg></g></g></g></g></svg>